<svg id="svg" version="1.1" xmlns="http://www.w3.org/2000/svg" xmlns:xlink="http://www.w3.org/1999/xlink" width="400" height="400" viewBox="0, 0, 400,400"><g id="svgg"><path id="path0" d="M121.200 51.863 C 114.105 52.628,98.548 54.507,96.800 54.810 C 95.590 55.020,89.380 55.821,83.000 56.589 C 76.620 57.357,70.230 58.160,68.800 58.372 C 67.370 58.584,61.520 59.308,55.800 59.981 C 35.660 62.351,34.823 62.495,33.176 63.882 C 30.468 66.160,30.670 61.375,30.613 124.600 C 30.568 175.295,30.488 182.323,29.906 186.400 C 29.546 188.930,28.699 197.300,28.026 205.000 C 27.353 212.700,26.619 220.620,26.397 222.600 C 25.818 227.744,25.323 232.907,24.401 243.400 C 23.956 248.460,23.417 253.860,23.204 255.400 C 22.990 256.940,22.355 263.600,21.792 270.200 C 21.229 276.800,20.506 284.501,20.187 287.314 C 19.867 290.127,19.154 297.656,18.603 304.046 C 16.650 326.670,15.915 325.688,33.400 323.812 C 38.240 323.292,49.130 322.138,57.600 321.247 C 80.957 318.789,79.410 319.944,80.005 304.515 C 80.498 291.747,81.119 279.861,81.610 273.800 C 81.824 271.160,82.367 262.070,82.817 253.600 C 84.332 225.073,84.194 225.969,87.102 225.677 C 88.672 225.520,89.532 226.632,92.610 232.800 C 93.873 235.330,96.916 241.180,99.372 245.800 C 101.829 250.420,104.434 255.370,105.161 256.800 C 105.888 258.230,109.771 265.610,113.789 273.200 C 127.252 298.633,132.800 309.193,132.800 309.391 C 132.800 309.783,142.523 327.798,143.307 328.859 C 145.874 332.331,146.880 331.984,170.315 319.536 C 175.219 316.931,179.305 314.800,179.395 314.800 C 180.159 314.800,194.496 306.756,195.500 305.764 C 197.764 303.528,197.318 302.531,186.578 285.800 C 185.872 284.700,183.543 281.010,181.403 277.600 C 179.262 274.190,177.107 270.770,176.615 270.000 C 176.122 269.230,174.187 266.170,172.314 263.200 C 170.442 260.230,167.040 254.871,164.755 251.291 C 160.581 244.752,151.809 230.731,149.558 227.000 C 148.895 225.900,147.550 223.740,146.569 222.200 C 145.588 220.660,144.185 218.410,143.450 217.200 C 142.716 215.990,141.177 213.481,140.030 211.625 C 138.184 208.639,138.000 208.148,138.426 207.352 C 139.078 206.134,147.204 198.636,166.476 181.474 C 170.368 178.008,173.929 174.562,174.390 173.816 C 175.564 171.917,176.873 162.693,179.361 138.800 C 179.693 135.610,180.505 128.495,181.166 122.990 C 184.385 96.179,184.414 96.290,171.571 85.702 C 163.835 79.325,155.818 72.898,151.000 69.213 C 148.580 67.362,145.160 64.746,143.400 63.399 C 131.411 54.224,125.893 51.357,121.200 51.863 M219.693 55.265 C 217.995 55.735,216.220 58.182,215.600 60.907 C 215.339 62.058,214.436 65.880,213.595 69.400 C 212.754 72.920,211.136 79.760,209.999 84.600 C 208.862 89.440,207.600 94.570,207.196 96.000 C 206.792 97.430,205.892 101.210,205.198 104.400 C 204.503 107.590,203.247 113.350,202.406 117.200 C 201.565 121.050,200.321 126.810,199.642 130.000 C 198.962 133.190,198.141 136.790,197.817 138.000 C 197.493 139.210,196.589 143.170,195.809 146.800 C 195.028 150.430,193.672 156.460,192.795 160.200 C 191.918 163.940,190.462 170.240,189.559 174.200 C 188.657 178.160,187.237 184.370,186.405 188.000 C 185.573 191.630,184.160 197.840,183.264 201.800 C 182.369 205.760,180.893 212.150,179.984 216.000 C 179.076 219.850,177.824 225.250,177.203 228.000 C 176.581 230.750,175.683 234.523,175.206 236.385 C 174.072 240.816,173.798 240.097,180.459 250.200 C 183.651 255.040,187.663 261.160,189.376 263.800 C 191.088 266.440,193.762 270.490,195.317 272.800 C 214.371 301.103,213.937 300.192,211.019 305.792 C 208.804 310.041,206.903 312.306,203.442 314.817 C 201.659 316.112,198.441 318.482,196.292 320.085 L 192.383 323.000 194.892 323.264 C 196.271 323.410,200.390 323.660,204.044 323.821 L 210.689 324.113 212.142 322.756 C 213.334 321.644,213.707 320.896,214.212 318.600 C 215.070 314.698,217.818 300.874,219.022 294.400 C 219.574 291.430,220.393 287.110,220.841 284.800 C 221.290 282.490,222.271 276.910,223.021 272.400 C 224.831 261.520,226.492 252.159,227.740 245.800 C 228.301 242.940,229.483 236.820,230.367 232.200 C 231.250 227.580,232.436 221.460,233.002 218.600 C 233.568 215.740,234.653 210.077,235.412 206.016 C 236.172 201.954,236.965 198.084,237.174 197.416 C 237.383 196.747,238.109 193.320,238.787 189.800 C 240.872 178.977,242.326 174.433,243.714 174.406 C 244.173 174.397,245.304 177.209,246.935 182.415 C 247.725 184.937,252.228 198.520,256.942 212.600 C 261.656 226.680,266.691 241.800,268.132 246.200 C 271.990 257.988,272.661 259.670,273.984 260.879 C 277.001 263.635,281.064 262.308,282.866 257.978 C 283.457 256.560,284.228 254.743,284.581 253.939 C 284.934 253.136,285.848 250.931,286.612 249.039 C 288.492 244.380,290.386 239.792,292.405 235.000 C 293.333 232.800,294.861 229.110,295.801 226.800 C 298.338 220.569,300.103 216.313,302.190 211.400 C 303.218 208.980,304.655 205.560,305.385 203.800 C 306.114 202.040,307.466 198.800,308.390 196.600 C 309.314 194.400,310.687 191.070,311.442 189.200 C 312.197 187.330,313.066 185.260,313.374 184.600 C 313.681 183.940,314.411 182.199,314.996 180.731 C 317.582 174.245,318.533 176.636,320.196 193.800 C 320.750 199.520,321.383 205.460,321.601 207.000 C 321.820 208.540,322.535 215.830,323.190 223.200 C 323.845 230.570,324.566 237.860,324.793 239.400 C 325.019 240.940,325.745 248.320,326.406 255.800 C 327.066 263.280,327.875 272.010,328.202 275.200 C 328.529 278.390,329.254 285.950,329.813 292.000 C 331.971 315.358,332.598 320.535,333.442 321.964 C 334.976 324.559,337.458 324.921,344.800 323.616 C 347.110 323.206,351.700 322.407,355.000 321.840 C 371.409 319.024,386.692 315.811,388.930 314.707 C 392.500 312.948,392.498 312.869,387.995 279.600 C 387.116 273.110,385.683 262.400,384.810 255.800 C 383.936 249.200,383.043 242.720,382.824 241.400 C 382.606 240.080,381.974 235.130,381.421 230.400 C 380.868 225.670,380.227 220.720,379.996 219.400 C 379.764 218.080,378.953 211.960,378.193 205.800 C 377.432 199.640,376.078 189.380,375.184 183.000 C 374.290 176.620,372.856 166.180,371.998 159.800 C 371.139 153.420,369.721 143.070,368.846 136.800 C 366.590 120.634,364.162 102.701,362.997 93.600 C 362.448 89.310,361.641 83.640,361.204 81.000 C 360.767 78.360,359.861 72.454,359.192 67.876 C 357.815 58.460,357.264 56.670,355.450 55.702 C 353.729 54.783,314.582 54.879,312.788 55.806 C 311.043 56.709,311.003 56.815,300.269 89.400 C 297.949 96.440,294.436 106.970,292.461 112.800 C 290.486 118.630,287.759 126.852,286.401 131.070 C 282.567 142.983,282.729 143.162,276.551 120.200 C 273.154 107.573,271.140 100.036,267.201 85.200 C 260.009 58.116,259.821 57.543,257.600 55.980 C 256.461 55.178,222.330 54.534,219.693 55.265 M105.600 104.444 C 114.442 105.053,115.408 105.446,122.000 111.118 C 132.332 120.007,132.935 121.346,131.054 131.200 C 130.697 133.070,129.942 137.480,129.377 141.000 C 127.130 154.984,127.388 154.522,117.873 161.622 C 108.093 168.919,106.966 169.360,93.885 171.016 C 87.759 171.792,86.618 171.609,86.159 169.779 C 85.806 168.371,86.985 106.393,87.382 105.488 C 88.266 103.476,90.052 103.374,105.600 104.444 " stroke="none" fill="#ececea" fill-rule="evenodd"></path><path id="path1" d="M0.000 200.000 L 0.000 400.000 200.000 400.000 L 400.000 400.000 400.000 200.000 L 400.000 0.000 200.000 0.000 L 0.000 0.000 0.000 200.000 M127.800 52.619 C 129.506 53.424,135.102 57.027,138.951 59.800 C 142.018 62.009,150.352 68.257,151.442 69.165 C 152.126 69.734,153.625 70.920,154.774 71.800 C 158.219 74.437,167.495 81.951,174.772 88.000 C 183.755 95.465,184.857 100.506,181.858 120.400 C 181.020 125.955,180.111 134.204,178.969 146.600 C 178.848 147.920,178.584 149.990,178.382 151.200 C 178.181 152.410,177.549 157.450,176.976 162.400 C 175.824 172.370,175.290 174.013,172.381 176.544 C 169.622 178.943,146.578 199.736,142.708 203.319 C 137.351 208.277,136.982 206.476,146.408 221.400 C 147.937 223.820,149.775 226.759,150.494 227.931 C 151.212 229.104,152.269 230.814,152.842 231.731 C 153.416 232.649,155.112 235.380,156.612 237.800 C 158.113 240.220,160.275 243.640,161.419 245.400 C 162.562 247.160,165.251 251.390,167.393 254.800 C 169.536 258.210,171.698 261.630,172.198 262.400 C 172.992 263.622,176.039 268.475,181.742 277.600 C 182.636 279.030,184.643 282.180,186.203 284.600 C 187.763 287.020,189.531 289.810,190.132 290.800 C 190.733 291.790,192.040 293.860,193.036 295.400 C 197.108 301.698,197.784 305.100,195.272 306.660 C 194.032 307.430,176.440 316.800,176.234 316.800 C 176.122 316.800,172.109 318.897,167.315 321.459 C 149.279 331.102,147.014 331.995,144.619 330.416 C 143.559 329.718,140.400 325.455,140.400 324.724 C 140.400 324.563,138.240 320.367,135.600 315.400 C 132.960 310.433,130.800 306.290,130.800 306.193 C 130.800 306.096,128.550 301.797,125.800 296.639 C 123.050 291.482,120.800 287.180,120.800 287.081 C 120.800 286.981,116.660 279.119,111.600 269.609 C 106.540 260.098,102.400 252.237,102.400 252.140 C 102.400 252.043,100.267 247.966,97.660 243.081 C 95.053 238.197,92.337 233.030,91.623 231.600 C 88.965 226.274,87.942 225.175,86.409 225.995 C 84.936 226.784,84.709 228.069,83.987 239.761 C 83.591 246.163,83.158 252.480,83.024 253.800 C 82.746 256.543,81.411 282.009,80.813 296.000 C 79.774 320.276,80.425 319.067,67.669 320.413 C 63.781 320.823,59.160 321.346,57.400 321.575 C 55.640 321.805,48.710 322.531,42.000 323.189 C 35.290 323.847,28.720 324.568,27.400 324.790 C 17.793 326.411,16.336 324.356,17.624 311.000 C 18.049 306.600,18.935 297.060,19.593 289.800 C 20.252 282.540,21.060 274.260,21.389 271.400 C 21.718 268.540,22.359 261.880,22.813 256.600 C 23.268 251.320,23.904 244.480,24.226 241.400 C 24.548 238.320,25.343 229.860,25.993 222.600 C 26.642 215.340,27.360 207.960,27.588 206.200 C 27.816 204.440,28.357 198.860,28.791 193.800 C 29.225 188.740,29.776 182.440,30.017 179.800 C 30.315 176.532,30.418 157.831,30.341 121.200 C 30.216 62.301,30.066 66.326,32.462 64.147 C 34.625 62.179,35.079 62.085,51.400 60.214 C 54.260 59.886,58.400 59.355,60.600 59.035 C 62.800 58.715,68.814 57.983,73.964 57.410 C 79.114 56.837,83.445 56.296,83.587 56.208 C 83.730 56.120,88.606 55.495,94.423 54.818 C 100.240 54.142,106.710 53.313,108.800 52.975 C 120.025 51.163,124.536 51.079,127.800 52.619 M244.850 54.800 L 256.772 54.800 258.136 55.998 C 259.645 57.322,261.203 61.198,262.961 68.000 C 263.501 70.090,264.785 74.950,265.814 78.800 C 266.842 82.650,268.277 88.050,269.003 90.800 C 270.816 97.677,273.786 108.760,275.487 115.000 C 276.267 117.860,277.590 122.720,278.427 125.800 C 282.576 141.069,282.802 141.340,285.179 133.907 C 286.927 128.443,297.527 96.630,297.978 95.493 C 298.174 95.002,300.069 89.200,302.191 82.600 C 304.313 76.000,306.382 69.700,306.789 68.600 C 307.196 67.500,308.091 64.872,308.777 62.760 C 310.162 58.503,311.655 55.886,313.067 55.242 C 314.785 54.460,354.628 54.595,355.838 55.388 C 357.745 56.637,358.213 58.662,361.018 77.800 C 361.760 82.860,362.638 88.620,362.969 90.600 C 363.300 92.580,363.852 96.990,364.196 100.400 C 364.540 103.810,365.177 108.760,365.611 111.400 C 366.045 114.040,366.941 120.461,367.601 125.670 C 368.262 130.878,368.889 135.378,368.994 135.670 C 369.100 135.961,369.827 141.198,370.608 147.306 C 371.390 153.415,372.109 158.635,372.207 158.906 C 372.304 159.178,372.930 163.810,373.598 169.200 C 374.266 174.590,374.994 179.906,375.216 181.013 C 375.439 182.120,376.245 187.880,377.007 193.813 C 377.770 199.746,378.744 207.300,379.173 210.600 C 379.601 213.900,380.333 219.570,380.799 223.200 C 381.945 232.123,384.425 250.813,386.399 265.400 C 387.292 272.000,388.723 282.710,389.579 289.200 C 390.435 295.690,391.350 302.504,391.613 304.343 C 393.140 315.041,392.933 315.174,367.400 319.817 C 363.220 320.577,359.536 321.298,359.213 321.420 C 358.240 321.787,341.583 324.469,338.920 324.687 C 335.329 324.982,333.721 323.900,332.424 320.315 C 332.208 319.719,331.575 314.049,331.017 307.715 C 330.459 301.382,329.724 293.860,329.383 291.000 C 329.042 288.140,328.141 278.870,327.381 270.400 C 325.403 248.360,323.278 226.000,323.027 224.600 C 322.909 223.940,322.262 217.460,321.589 210.200 C 320.323 196.539,318.251 179.130,317.807 178.411 C 317.149 177.347,316.367 178.348,314.614 182.500 C 313.568 184.975,312.295 187.990,311.784 189.200 C 311.273 190.410,310.145 193.110,309.278 195.200 C 308.410 197.290,306.777 201.188,305.650 203.862 C 304.522 206.535,303.600 208.842,303.600 208.986 C 303.600 209.131,303.167 210.183,302.638 211.325 C 301.335 214.137,299.431 218.623,297.599 223.200 C 296.762 225.290,295.239 228.980,294.215 231.400 C 293.190 233.820,291.900 236.962,291.348 238.383 C 290.796 239.803,290.006 241.708,289.593 242.615 C 289.180 243.522,288.458 245.240,287.990 246.432 C 287.521 247.625,286.885 249.140,286.576 249.800 C 286.267 250.460,285.398 252.575,284.646 254.499 C 281.832 261.692,279.619 263.674,275.854 262.372 C 273.122 261.427,272.210 259.562,267.639 245.558 C 265.384 238.651,263.114 231.830,262.595 230.400 C 262.076 228.970,261.201 226.360,260.652 224.600 C 260.103 222.840,258.581 218.250,257.269 214.400 C 254.425 206.049,253.181 202.283,251.588 197.200 C 250.932 195.110,250.222 193.040,250.008 192.600 C 249.795 192.160,248.520 188.380,247.175 184.200 C 243.692 173.375,243.542 173.143,242.235 176.563 C 241.050 179.667,235.860 204.593,231.401 228.600 C 230.829 231.680,230.094 235.460,229.768 237.000 C 229.443 238.540,228.463 243.670,227.592 248.400 C 226.721 253.130,225.826 257.900,225.603 259.000 C 225.380 260.100,224.641 264.330,223.961 268.400 C 221.183 285.035,219.999 291.825,219.779 292.397 C 219.651 292.729,219.010 295.970,218.354 299.600 C 217.699 303.230,216.816 307.730,216.392 309.600 C 215.969 311.470,215.266 314.872,214.830 317.159 C 213.534 323.954,212.304 324.712,203.670 324.033 C 200.637 323.795,196.871 323.600,195.301 323.600 C 191.231 323.600,191.360 323.331,197.640 318.733 C 206.959 311.910,208.302 310.577,210.748 305.711 C 212.847 301.539,212.269 298.624,208.097 292.337 C 206.834 290.433,201.675 282.693,196.633 275.137 C 191.592 267.582,185.989 259.150,184.182 256.400 C 182.376 253.650,179.436 249.187,177.649 246.482 C 173.471 240.158,173.393 242.754,178.402 221.400 C 180.327 213.192,182.524 203.670,184.769 193.800 C 188.361 178.006,189.772 171.825,191.255 165.400 C 193.752 154.575,195.887 145.171,197.656 137.200 C 198.559 133.130,199.998 126.650,200.855 122.800 C 201.711 118.950,202.933 113.280,203.571 110.200 C 204.208 107.120,205.194 102.800,205.760 100.600 C 206.327 98.400,207.415 93.990,208.177 90.800 C 208.939 87.610,210.281 82.030,211.160 78.400 C 212.038 74.770,213.137 70.000,213.601 67.800 C 216.261 55.193,217.178 54.288,226.964 54.606 C 230.244 54.713,238.292 54.800,244.850 54.800 M88.496 104.704 C 87.403 105.797,87.277 107.730,87.011 127.400 C 86.893 136.200,86.590 149.015,86.340 155.877 C 85.760 171.751,85.829 171.984,90.877 171.223 C 108.169 168.614,107.901 168.707,116.400 162.403 C 126.835 154.663,126.406 155.251,128.071 146.427 C 131.043 130.678,131.866 124.095,131.187 121.512 C 130.373 118.412,118.522 107.653,114.094 105.993 C 109.480 104.263,89.922 103.278,88.496 104.704 " stroke="none" fill="#0e0e0e" fill-rule="evenodd"></path><path id="path2" d="M222.700 54.695 C 223.855 54.776,225.745 54.776,226.900 54.695 C 228.055 54.614,227.110 54.548,224.800 54.548 C 222.490 54.548,221.545 54.614,222.700 54.695 M86.500 55.876 C 86.885 55.976,87.515 55.976,87.900 55.876 C 88.285 55.775,87.970 55.693,87.200 55.693 C 86.430 55.693,86.115 55.775,86.500 55.876 M30.170 77.200 C 30.170 81.930,30.228 83.865,30.298 81.500 C 30.369 79.135,30.369 75.265,30.298 72.900 C 30.228 70.535,30.170 72.470,30.170 77.200 M178.400 91.400 C 179.146 92.170,179.847 92.800,179.957 92.800 C 180.067 92.800,179.546 92.170,178.800 91.400 C 178.054 90.630,177.353 90.000,177.243 90.000 C 177.133 90.000,177.654 90.630,178.400 91.400 M30.593 134.400 C 30.593 156.950,30.641 166.175,30.700 154.900 C 30.759 143.625,30.759 125.175,30.700 113.900 C 30.641 102.625,30.593 111.850,30.593 134.400 M127.600 116.600 C 128.795 117.810,129.863 118.800,129.973 118.800 C 130.083 118.800,129.195 117.810,128.000 116.600 C 126.805 115.390,125.737 114.400,125.627 114.400 C 125.517 114.400,126.405 115.390,127.600 116.600 M86.957 125.600 C 86.957 128.570,87.020 129.785,87.097 128.300 C 87.174 126.815,87.174 124.385,87.097 122.900 C 87.020 121.415,86.957 122.630,86.957 125.600 M86.565 142.200 C 86.566 146.160,86.626 147.726,86.698 145.680 C 86.771 143.634,86.771 140.394,86.698 138.480 C 86.624 136.566,86.565 138.240,86.565 142.200 M178.893 145.200 C 178.893 145.970,178.975 146.285,179.076 145.900 C 179.176 145.515,179.176 144.885,179.076 144.500 C 178.975 144.115,178.893 144.430,178.893 145.200 M178.493 148.800 C 178.493 149.570,178.575 149.885,178.676 149.500 C 178.776 149.115,178.776 148.485,178.676 148.100 C 178.575 147.715,178.493 148.030,178.493 148.800 M86.114 158.200 C 86.117 159.300,86.195 159.703,86.287 159.095 C 86.379 158.486,86.377 157.586,86.282 157.095 C 86.187 156.603,86.111 157.100,86.114 158.200 M372.493 162.400 C 372.493 163.170,372.575 163.485,372.676 163.100 C 372.776 162.715,372.776 162.085,372.676 161.700 C 372.575 161.315,372.493 161.630,372.493 162.400 M172.575 176.100 L 171.400 177.400 172.700 176.225 C 173.912 175.130,174.184 174.800,173.875 174.800 C 173.806 174.800,173.221 175.385,172.575 176.100 M30.101 178.600 C 30.105 179.480,30.187 179.793,30.283 179.295 C 30.379 178.798,30.375 178.078,30.275 177.695 C 30.175 177.313,30.096 177.720,30.101 178.600 M319.301 188.200 C 319.305 189.080,319.387 189.393,319.483 188.895 C 319.579 188.398,319.575 187.678,319.475 187.295 C 319.375 186.913,319.296 187.320,319.301 188.200 M155.775 191.300 L 154.600 192.600 155.900 191.425 C 156.615 190.779,157.200 190.194,157.200 190.125 C 157.200 189.816,156.870 190.088,155.775 191.300 M319.693 191.600 C 319.693 192.370,319.775 192.685,319.876 192.300 C 319.976 191.915,319.976 191.285,319.876 190.900 C 319.775 190.515,319.693 190.830,319.693 191.600 M151.978 194.700 L 150.600 196.200 152.100 194.822 C 152.925 194.063,153.600 193.388,153.600 193.322 C 153.600 193.016,153.262 193.304,151.978 194.700 M148.378 197.900 L 147.000 199.400 148.500 198.022 C 149.325 197.263,150.000 196.588,150.000 196.522 C 150.000 196.216,149.662 196.504,148.378 197.900 M27.301 209.000 C 27.305 209.880,27.387 210.193,27.483 209.695 C 27.579 209.198,27.575 208.478,27.475 208.095 C 27.375 207.713,27.296 208.120,27.301 209.000 M26.893 212.800 C 26.893 213.570,26.975 213.885,27.076 213.500 C 27.176 213.115,27.176 212.485,27.076 212.100 C 26.975 211.715,26.893 212.030,26.893 212.800 M322.509 219.600 C 322.509 220.590,322.587 220.995,322.682 220.500 C 322.778 220.005,322.778 219.195,322.682 218.700 C 322.587 218.205,322.509 218.610,322.509 219.600 M322.893 223.200 C 322.893 223.970,322.975 224.285,323.076 223.900 C 323.176 223.515,323.176 222.885,323.076 222.500 C 322.975 222.115,322.893 222.430,322.893 223.200 M24.501 238.600 C 24.505 239.480,24.587 239.793,24.683 239.295 C 24.779 238.798,24.775 238.078,24.675 237.695 C 24.575 237.313,24.496 237.720,24.501 238.600 M83.701 241.400 C 83.705 242.280,83.787 242.593,83.883 242.095 C 83.979 241.598,83.975 240.878,83.875 240.495 C 83.775 240.113,83.696 240.520,83.701 241.400 M24.101 242.600 C 24.105 243.480,24.187 243.793,24.283 243.295 C 24.379 242.798,24.375 242.078,24.275 241.695 C 24.175 241.313,24.096 241.720,24.101 242.600 M83.328 247.200 C 83.328 248.630,83.401 249.215,83.489 248.500 C 83.578 247.785,83.578 246.615,83.489 245.900 C 83.401 245.185,83.328 245.770,83.328 247.200 M325.701 252.200 C 325.705 253.080,325.787 253.393,325.883 252.895 C 325.979 252.398,325.975 251.678,325.875 251.295 C 325.775 250.913,325.696 251.320,325.701 252.200 M21.293 272.400 C 21.293 273.170,21.375 273.485,21.476 273.100 C 21.576 272.715,21.576 272.085,21.476 271.700 C 21.375 271.315,21.293 271.630,21.293 272.400 M20.901 276.200 C 20.905 277.080,20.987 277.393,21.083 276.895 C 21.179 276.398,21.175 275.678,21.075 275.295 C 20.975 274.913,20.896 275.320,20.901 276.200 M328.493 282.800 C 328.493 283.570,328.575 283.885,328.676 283.500 C 328.776 283.115,328.776 282.485,328.676 282.100 C 328.575 281.715,328.493 282.030,328.493 282.800 M328.901 286.600 C 328.905 287.480,328.987 287.793,329.083 287.295 C 329.179 286.798,329.175 286.078,329.075 285.695 C 328.975 285.313,328.896 285.720,328.901 286.600 M80.524 297.800 C 80.526 299.120,80.601 299.612,80.690 298.893 C 80.779 298.174,80.777 297.094,80.686 296.493 C 80.595 295.892,80.522 296.480,80.524 297.800 M80.146 306.600 C 80.147 308.800,80.214 309.649,80.295 308.487 C 80.376 307.324,80.376 305.524,80.293 304.487 C 80.211 303.449,80.145 304.400,80.146 306.600 M18.109 306.000 C 18.109 306.990,18.187 307.395,18.282 306.900 C 18.378 306.405,18.378 305.595,18.282 305.100 C 18.187 304.605,18.109 305.010,18.109 306.000 M17.714 310.200 C 17.717 311.300,17.795 311.703,17.887 311.095 C 17.979 310.486,17.977 309.586,17.882 309.095 C 17.787 308.603,17.711 309.100,17.714 310.200 M331.701 315.400 C 331.705 316.280,331.787 316.593,331.883 316.095 C 331.979 315.598,331.975 314.878,331.875 314.495 C 331.775 314.113,331.696 314.520,331.701 315.400 M57.300 321.476 C 57.685 321.576,58.315 321.576,58.700 321.476 C 59.085 321.375,58.770 321.293,58.000 321.293 C 57.230 321.293,56.915 321.375,57.300 321.476 M53.505 321.883 C 54.002 321.979,54.722 321.975,55.105 321.875 C 55.487 321.775,55.080 321.696,54.200 321.701 C 53.320 321.705,53.007 321.787,53.505 321.883 M26.900 324.676 C 27.285 324.776,27.915 324.776,28.300 324.676 C 28.685 324.575,28.370 324.493,27.600 324.493 C 26.830 324.493,26.515 324.575,26.900 324.676 " stroke="none" fill="#616160" fill-rule="evenodd"></path><path id="path3" d="M119.900 51.882 C 120.395 51.978,121.205 51.978,121.700 51.882 C 122.195 51.787,121.790 51.709,120.800 51.709 C 119.810 51.709,119.405 51.787,119.900 51.882 M236.925 55.099 C 240.624 55.166,246.564 55.165,250.125 55.099 C 253.686 55.033,250.660 54.979,243.400 54.979 C 236.140 54.979,233.226 55.033,236.925 55.099 M319.900 55.099 C 323.255 55.166,328.745 55.166,332.100 55.099 C 335.455 55.032,332.710 54.978,326.000 54.978 C 319.290 54.978,316.545 55.032,319.900 55.099 M339.305 55.087 C 339.914 55.179,340.814 55.177,341.305 55.082 C 341.797 54.987,341.300 54.911,340.200 54.914 C 339.100 54.917,338.697 54.995,339.305 55.087 M350.291 55.089 C 351.001 55.177,352.261 55.179,353.091 55.092 C 353.921 55.005,353.340 54.933,351.800 54.931 C 350.260 54.929,349.581 55.000,350.291 55.089 M42.500 61.476 C 42.885 61.576,43.515 61.576,43.900 61.476 C 44.285 61.375,43.970 61.293,43.200 61.293 C 42.430 61.293,42.115 61.375,42.500 61.476 M30.551 87.200 C 30.551 89.730,30.616 90.765,30.696 89.500 C 30.775 88.235,30.775 86.165,30.696 84.900 C 30.616 83.635,30.551 84.670,30.551 87.200 M363.693 99.200 C 363.693 99.970,363.775 100.285,363.876 99.900 C 363.976 99.515,363.976 98.885,363.876 98.500 C 363.775 98.115,363.693 98.430,363.693 99.200 M182.901 101.000 C 182.905 101.880,182.987 102.193,183.083 101.695 C 183.179 101.198,183.175 100.478,183.075 100.095 C 182.975 99.713,182.896 100.120,182.901 101.000 M90.700 103.889 C 91.415 103.978,92.585 103.978,93.300 103.889 C 94.015 103.801,93.430 103.728,92.000 103.728 C 90.570 103.728,89.985 103.801,90.700 103.889 M182.914 107.800 C 182.917 108.900,182.995 109.303,183.087 108.695 C 183.179 108.086,183.177 107.186,183.082 106.695 C 182.987 106.203,182.911 106.700,182.914 107.800 M86.948 111.600 C 86.948 113.910,87.014 114.855,87.095 113.700 C 87.176 112.545,87.176 110.655,87.095 109.500 C 87.014 108.345,86.948 109.290,86.948 111.600 M182.493 112.000 C 182.493 112.770,182.575 113.085,182.676 112.700 C 182.776 112.315,182.776 111.685,182.676 111.300 C 182.575 110.915,182.493 111.230,182.493 112.000 M131.709 124.000 C 131.709 124.990,131.787 125.395,131.882 124.900 C 131.978 124.405,131.978 123.595,131.882 123.100 C 131.787 122.605,131.709 123.010,131.709 124.000 M86.524 131.800 C 86.526 133.120,86.601 133.612,86.690 132.893 C 86.779 132.174,86.777 131.094,86.686 130.493 C 86.595 129.892,86.522 130.480,86.524 131.800 M179.693 135.200 C 179.693 135.970,179.775 136.285,179.876 135.900 C 179.976 135.515,179.976 134.885,179.876 134.500 C 179.775 134.115,179.693 134.430,179.693 135.200 M179.301 139.000 C 179.305 139.880,179.387 140.193,179.483 139.695 C 179.579 139.198,179.575 138.478,179.475 138.095 C 179.375 137.713,179.296 138.120,179.301 139.000 M86.120 153.200 C 86.120 154.410,86.195 154.905,86.287 154.300 C 86.378 153.695,86.378 152.705,86.287 152.100 C 86.195 151.495,86.120 151.990,86.120 153.200 M165.375 182.500 L 164.200 183.800 165.500 182.625 C 166.712 181.530,166.984 181.200,166.675 181.200 C 166.606 181.200,166.021 181.785,165.375 182.500 M29.693 185.200 C 29.693 185.970,29.775 186.285,29.876 185.900 C 29.976 185.515,29.976 184.885,29.876 184.500 C 29.775 184.115,29.693 184.430,29.693 185.200 M161.775 185.700 L 160.600 187.000 161.900 185.825 C 163.112 184.730,163.384 184.400,163.075 184.400 C 163.006 184.400,162.421 184.985,161.775 185.700 M29.293 189.200 C 29.293 189.970,29.375 190.285,29.476 189.900 C 29.576 189.515,29.576 188.885,29.476 188.500 C 29.375 188.115,29.293 188.430,29.293 189.200 M146.175 199.700 L 145.000 201.000 146.300 199.825 C 147.512 198.730,147.784 198.400,147.475 198.400 C 147.406 198.400,146.821 198.985,146.175 199.700 M140.181 205.300 L 138.600 207.000 140.300 205.419 C 141.235 204.549,142.000 203.784,142.000 203.719 C 142.000 203.416,141.652 203.719,140.181 205.300 M321.693 209.600 C 321.693 210.370,321.775 210.685,321.876 210.300 C 321.976 209.915,321.976 209.285,321.876 208.900 C 321.775 208.515,321.693 208.830,321.693 209.600 M379.293 214.400 C 379.293 215.170,379.375 215.485,379.476 215.100 C 379.576 214.715,379.576 214.085,379.476 213.700 C 379.375 213.315,379.293 213.630,379.293 214.400 M26.501 219.400 C 26.505 220.280,26.587 220.593,26.683 220.095 C 26.779 219.598,26.775 218.878,26.675 218.495 C 26.575 218.113,26.496 218.520,26.501 219.400 M26.093 223.600 C 26.093 224.370,26.175 224.685,26.276 224.300 C 26.376 223.915,26.376 223.285,26.276 222.900 C 26.175 222.515,26.093 222.830,26.093 223.600 M84.120 231.200 C 84.120 232.410,84.195 232.905,84.287 232.300 C 84.378 231.695,84.378 230.705,84.287 230.100 C 84.195 229.495,84.120 229.990,84.120 231.200 M324.901 242.200 C 324.905 243.080,324.987 243.393,325.083 242.895 C 325.179 242.398,325.175 241.678,325.075 241.295 C 324.975 240.913,324.896 241.320,324.901 242.200 M23.293 252.800 C 23.293 253.570,23.375 253.885,23.476 253.500 C 23.576 253.115,23.576 252.485,23.476 252.100 C 23.375 251.715,23.293 252.030,23.293 252.800 M327.693 272.000 C 327.693 272.770,327.775 273.085,327.876 272.700 C 327.976 272.315,327.976 271.685,327.876 271.300 C 327.775 270.915,327.693 271.230,327.693 272.000 M328.109 276.000 C 328.109 276.990,328.187 277.395,328.282 276.900 C 328.378 276.405,328.378 275.595,328.282 275.100 C 328.187 274.605,328.109 275.010,328.109 276.000 M81.324 278.600 C 81.326 279.920,81.401 280.412,81.490 279.693 C 81.579 278.974,81.577 277.894,81.486 277.293 C 81.395 276.692,81.322 277.280,81.324 278.600 M80.931 285.400 C 80.933 286.940,81.005 287.521,81.092 286.691 C 81.179 285.861,81.177 284.601,81.089 283.891 C 81.000 283.181,80.929 283.860,80.931 285.400 M20.093 286.400 C 20.093 287.170,20.175 287.485,20.276 287.100 C 20.376 286.715,20.376 286.085,20.276 285.700 C 20.175 285.315,20.093 285.630,20.093 286.400 M80.493 291.600 C 80.493 292.370,80.575 292.685,80.676 292.300 C 80.776 291.915,80.776 291.285,80.676 290.900 C 80.575 290.515,80.493 290.830,80.493 291.600 M80.093 300.800 C 80.093 301.570,80.175 301.885,80.276 301.500 C 80.376 301.115,80.376 300.485,80.276 300.100 C 80.175 299.715,80.093 300.030,80.093 300.800 M330.893 305.200 C 330.893 305.970,330.975 306.285,331.076 305.900 C 331.176 305.515,331.176 304.885,331.076 304.500 C 330.975 304.115,330.893 304.430,330.893 305.200 M331.309 309.200 C 331.309 310.190,331.387 310.595,331.482 310.100 C 331.578 309.605,331.578 308.795,331.482 308.300 C 331.387 307.805,331.309 308.210,331.309 309.200 M206.175 312.500 L 205.000 313.800 206.300 312.625 C 207.015 311.979,207.600 311.394,207.600 311.325 C 207.600 311.016,207.270 311.288,206.175 312.500 M17.331 318.600 C 17.333 320.140,17.405 320.721,17.492 319.891 C 17.579 319.061,17.577 317.801,17.489 317.091 C 17.400 316.381,17.329 317.060,17.331 318.600 M44.500 322.676 C 44.885 322.776,45.515 322.776,45.900 322.676 C 46.285 322.575,45.970 322.493,45.200 322.493 C 44.430 322.493,44.115 322.575,44.500 322.676 " stroke="none" fill="#848481" fill-rule="evenodd"></path><path id="path4" d="M86.928 118.000 C 86.928 119.430,87.001 120.015,87.089 119.300 C 87.178 118.585,87.178 117.415,87.089 116.700 C 87.001 115.985,86.928 116.570,86.928 118.000 M83.693 238.800 C 83.693 239.570,83.775 239.885,83.876 239.500 C 83.976 239.115,83.976 238.485,83.876 238.100 C 83.775 237.715,83.693 238.030,83.693 238.800 M80.501 294.200 C 80.505 295.080,80.587 295.393,80.683 294.895 C 80.779 294.398,80.775 293.678,80.675 293.295 C 80.575 292.913,80.496 293.320,80.501 294.200 M391.709 308.800 C 391.709 309.790,391.787 310.195,391.882 309.700 C 391.978 309.205,391.978 308.395,391.882 307.900 C 391.787 307.405,391.709 307.810,391.709 308.800 M22.100 325.076 C 22.485 325.176,23.115 325.176,23.500 325.076 C 23.885 324.975,23.570 324.893,22.800 324.893 C 22.030 324.893,21.715 324.975,22.100 325.076 " stroke="none" fill="#7c7b7c" fill-rule="evenodd"></path></g></svg>